<?xml version="1.0" standalone="no"?>
<!DOCTYPE svg PUBLIC "-//W3C//DTD SVG 20010904//EN"
 "http://www.w3.org/TR/2001/REC-SVG-20010904/DTD/svg10.dtd">
<svg version="1.0" xmlns="http://www.w3.org/2000/svg"
 width="600.000000pt" height="600.000000pt" viewBox="0 0 600.000000 600.000000"
 preserveAspectRatio="xMidYMid meet">
<metadata>
Created by potrace 1.14, written by Peter Selinger 2001-2017
</metadata>
<g transform="translate(0.000000,600.000000) scale(0.100000,-0.100000)"
fill="#000000" stroke="none">
<path d="M1659 4887 c-18 -12 -39 -34 -46 -47 -10 -20 -13 -401 -13 -1805 0
-1714 1 -1782 19 -1815 10 -19 30 -44 45 -55 27 -20 38 -20 1469 -23 1027 -2
1453 0 1480 8 25 7 45 22 57 43 20 31 20 66 20 1845 l0 1814 -29 29 -29 29
-1470 0 -1469 0 -34 -23z m960 -1753 c47 -33 51 -64 51 -354 0 -288 -4 -314
-50 -355 -21 -19 -39 -20 -311 -23 -254 -3 -293 -1 -324 14 -63 30 -65 40 -65
358 0 161 4 296 10 310 5 14 24 35 42 46 31 19 51 20 328 20 257 0 299 -2 319
-16z m920 2 c48 -25 51 -45 51 -355 0 -283 0 -289 -23 -322 -40 -59 -43 -59
-364 -57 l-293 3 -32 33 -33 32 -3 292 c-3 320 -1 337 52 369 28 17 55 19 324
19 234 0 299 -3 321 -14z m845 -675 c34 -32 34 -74 1 -106 -24 -25 -24 -25
-235 -25 -211 0 -211 0 -235 25 -27 26 -33 71 -12 97 27 35 50 38 254 36 198
-3 202 -3 227 -27z m1 -196 c33 -32 33 -74 -1 -106 -25 -23 -30 -24 -217 -27
-105 -2 -201 -1 -214 3 -62 15 -83 86 -38 130 24 25 24 25 235 25 211 0 211 0
235 -25z m-1792 -56 c69 -19 72 -29 75 -334 2 -148 1 -285 -3 -303 -3 -18 -20
-48 -37 -67 l-30 -35 -305 0 -305 0 -34 34 -34 34 0 296 c0 329 2 340 62 369
28 14 74 17 303 17 157 0 286 -4 308 -11z m964 -22 l28 -27 3 -293 c2 -160 0
-302 -3 -314 -3 -12 -19 -35 -36 -52 l-31 -31 -294 0 c-324 0 -339 2 -369 60
-12 24 -15 78 -15 312 0 311 1 316 60 356 35 23 35 23 332 20 l298 -3 27 -28z"/>
<path d="M2235 3025 c-22 -21 -25 -33 -25 -100 l0 -75 -50 0 c-63 0 -97 -16
-109 -52 -22 -62 23 -108 106 -108 l53 0 0 -58 c0 -70 25 -102 79 -102 52 0
81 37 81 105 l0 55 74 0 c71 0 75 2 100 31 33 38 33 73 1 104 -21 22 -33 25
-98 25 l-75 0 -4 81 c-3 70 -6 83 -27 100 -32 27 -77 24 -106 -6z"/>
<path d="M3020 2833 c-56 -21 -70 -96 -24 -132 25 -20 39 -21 236 -21 208 0
209 0 233 25 16 15 25 36 25 55 0 19 -9 40 -25 55 -24 25 -24 25 -227 24 -112
0 -210 -3 -218 -6z"/>
<path d="M2404 2039 c-10 -4 -38 -25 -61 -48 -23 -22 -45 -41 -50 -41 -5 0
-27 18 -48 40 -45 46 -87 53 -126 21 -39 -32 -32 -82 21 -136 l43 -44 -47 -51
c-42 -45 -47 -55 -42 -83 8 -41 39 -67 80 -67 24 0 42 10 71 40 21 22 44 40
50 40 6 0 31 -20 55 -45 37 -37 50 -45 81 -45 29 0 43 6 58 26 35 45 26 80
-37 147 l-36 37 36 38 c62 65 72 101 38 144 -21 28 -56 39 -86 27z"/>
<path d="M3184 2117 c-19 -17 -27 -33 -27 -56 0 -70 84 -101 130 -47 31 36 29
61 -6 97 -36 35 -61 37 -97 6z"/>
<path d="M3015 1908 c-50 -27 -61 -89 -22 -126 21 -20 34 -21 235 -24 l214 -3
24 28 c39 45 29 98 -23 125 -29 16 -400 16 -428 0z"/>
<path d="M3192 1703 c-25 -10 -43 -60 -32 -89 31 -82 144 -66 144 19 0 61 -53
94 -112 70z"/>
</g>
</svg>
